<?xml version="1.0" standalone="no"?>
<!DOCTYPE svg PUBLIC "-//W3C//DTD SVG 20010904//EN"
 "http://www.w3.org/TR/2001/REC-SVG-20010904/DTD/svg10.dtd">
<svg version="1.0" xmlns="http://www.w3.org/2000/svg"
 width="152.000000pt" height="145.000000pt" viewBox="0 0 152.000000 145.000000"
 preserveAspectRatio="xMidYMid meet">
<metadata>
Created by potrace 1.16, written by Peter Selinger 2001-2019
</metadata>
<g transform="translate(0.000000,145.000000) scale(0.100000,-0.100000)"
fill="#000000" stroke="none">
<path d="M462 1266 c-166 -46 -304 -85 -307 -88 -3 -2 2 -38 9 -79 41 -218 46
-518 11 -704 -10 -49 -18 -96 -19 -104 -1 -11 85 -42 306 -112 l307 -97 308
96 c169 53 309 96 309 96 1 1 -7 51 -17 111 -37 223 -34 509 6 720 7 38 12 71
11 72 -1 2 -436 121 -604 166 -9 3 -153 -32 -320 -77z m589 -51 c149 -41 273
-76 274 -77 2 -2 -3 -37 -11 -78 -24 -123 -29 -443 -10 -587 9 -67 19 -128 22
-137 6 -15 -20 -24 -421 -149 l-140 -43 -279 87 c-153 48 -279 89 -281 91 -2
2 6 48 18 103 28 136 30 411 4 570 -10 61 -19 118 -20 128 -2 16 35 29 263 92
146 40 275 74 287 74 13 1 145 -33 294 -74z"/>
<path d="M492 1197 l-264 -72 6 -30 c3 -16 12 -88 22 -160 20 -156 15 -398
-11 -518 -9 -43 -15 -80 -13 -81 1 -1 122 -40 268 -85 l265 -83 265 82 c146
46 266 84 268 85 2 2 -4 52 -14 112 -23 143 -23 429 0 567 9 55 13 103 9 107
-7 6 -524 150 -534 148 -2 0 -122 -33 -267 -72z m-55 -180 c25 -28 112 -67
150 -67 29 0 34 -5 53 -47 12 -27 35 -62 51 -79 20 -21 27 -34 20 -39 -6 -3
-10 -1 -9 6 2 6 -3 14 -11 17 -9 3 -11 0 -6 -8 5 -8 4 -11 -2 -7 -12 8 -36
-17 -27 -26 4 -4 -7 -2 -25 3 -26 7 -33 5 -41 -11 -13 -23 -52 -34 -77 -21
-17 10 -17 11 2 18 11 4 32 16 47 26 22 15 32 17 48 8 15 -8 25 -8 38 0 14 9
13 10 -8 5 -17 -4 -21 -3 -12 3 11 7 7 14 -18 32 -26 19 -36 21 -56 11 -14 -6
-45 -11 -69 -11 -44 0 -65 12 -86 51 -10 20 -10 20 23 3 22 -12 56 -18 100
-19 60 0 70 -3 97 -29 42 -40 47 -29 7 15 -32 34 -35 35 -93 31 -77 -5 -122
15 -151 67 -30 53 -29 85 1 40 31 -48 98 -79 168 -79 53 0 57 -2 69 -29 11
-27 50 -72 50 -58 0 4 -14 27 -32 52 -29 41 -36 45 -72 45 -127 0 -210 78
-191 178 l7 37 18 -49 c11 -26 27 -57 37 -69z m713 14 c-18 -68 -90 -111 -186
-111 -34 0 -45 -5 -59 -26 -9 -14 -14 -28 -11 -31 3 -3 11 6 17 21 11 24 17
26 69 26 69 0 135 31 168 80 14 22 22 27 22 16 0 -25 -24 -67 -55 -96 -24 -22
-35 -25 -103 -25 -74 0 -77 -1 -108 -35 -40 -43 -35 -54 7 -14 27 26 37 29 98
29 47 0 75 5 94 18 14 9 29 17 32 17 8 0 -12 -36 -31 -54 -18 -19 -91 -21
-128 -5 -20 10 -30 8 -56 -11 -25 -18 -29 -25 -18 -32 9 -6 5 -7 -12 -3 -21 5
-22 4 -8 -5 13 -8 23 -8 38 0 16 9 26 7 48 -8 15 -10 36 -22 47 -26 19 -7 19
-8 2 -18 -25 -13 -64 -2 -77 21 -8 16 -15 18 -41 11 -18 -5 -29 -7 -25 -3 9
10 -15 34 -28 26 -6 -3 1 7 17 24 39 42 33 53 -8 13 -19 -18 -31 -38 -28 -43
4 -6 1 -7 -6 -2 -9 5 -4 16 18 39 16 17 39 52 51 79 19 42 24 47 53 47 44 0
129 41 155 75 12 15 27 46 34 68 l12 40 8 -32 c5 -18 4 -47 -2 -70z m-352
-107 c25 -18 29 -46 7 -64 -10 -8 -15 -31 -15 -67 0 -47 2 -54 18 -49 9 2 40
7 68 11 43 5 52 4 58 -11 6 -14 1 -16 -34 -11 -37 5 -40 3 -35 -14 4 -12 -2
-37 -15 -61 -19 -37 -20 -42 -5 -58 14 -15 15 -22 4 -42 -12 -22 -18 -68 -19
-130 0 -16 -9 -36 -20 -45 -11 -10 -23 -32 -26 -50 -8 -42 -30 -43 -39 -2 -4
17 -16 40 -27 51 -10 10 -18 29 -17 41 1 12 -1 30 -6 40 -4 9 -5 27 -2 39 4
12 -1 34 -10 49 -16 26 -16 29 1 48 18 19 17 21 -4 56 -14 23 -20 44 -16 59 6
23 4 24 -37 18 -39 -5 -41 -4 -28 12 11 13 24 15 60 11 25 -4 54 -9 64 -12 15
-4 17 3 17 47 0 32 -6 57 -15 66 -8 9 -15 24 -15 34 0 19 35 50 55 50 6 0 21
-7 33 -16z"/>
</g>
</svg>
